<?xml version="1.0" standalone="no"?>
<!DOCTYPE svg PUBLIC "-//W3C//DTD SVG 20010904//EN"
 "http://www.w3.org/TR/2001/REC-SVG-20010904/DTD/svg10.dtd">
<svg version="1.0" xmlns="http://www.w3.org/2000/svg"
 width="129.000000pt" height="115.000000pt" viewBox="0 0 129.000000 115.000000"
 preserveAspectRatio="xMidYMid meet">

<g transform="translate(0.000000,115.000000) scale(0.100000,-0.100000)"
fill="#000000" stroke="none">
<path d="M530 950 c0 -116 3 -141 15 -145 49 -16 50 -17 19 -26 -26 -8 -32
-15 -42 -60 -7 -28 -27 -85 -44 -127 l-33 -77 -3 -243 -3 -242 150 0 151 0 0
77 0 76 -23 -21 c-50 -47 -137 -13 -139 55 -1 32 17 73 33 73 6 0 8 16 4 43
-5 35 -3 47 16 71 17 22 22 40 20 72 -2 36 2 48 24 68 l27 25 -28 68 c-27 65
-28 78 -32 261 l-4 192 -54 0 -54 0 0 -140z m-1 -416 c-6 -16 -14 -58 -17 -93
-8 -76 -32 -98 -32 -29 0 42 21 135 35 158 14 23 26 -6 14 -36z"/>
<path d="M853 690 c-14 -34 -21 -40 -45 -40 -33 0 -37 -22 -12 -58 8 -12 12
-27 8 -33 -9 -16 15 -29 53 -29 31 0 32 -1 22 -26 -14 -38 -3 -42 30 -10 l28
27 6 -38 c4 -21 13 -47 22 -58 14 -19 16 -19 26 -2 10 16 12 16 40 -8 22 -18
42 -25 71 -25 l41 0 -5 48 -4 47 58 28 c32 16 58 32 58 37 0 11 -82 60 -101
60 -10 0 -14 13 -14 49 0 27 -3 52 -7 56 -12 13 -78 -5 -99 -26 -20 -20 -22
-20 -40 -3 -18 16 -19 16 -34 -19 -32 -76 -19 -97 59 -98 l61 -1 -55 -9 c-30
-5 -71 -20 -90 -33 l-35 -23 -1 40 c-1 35 0 38 11 24 7 -9 14 -17 17 -17 2 0
3 29 2 65 -3 61 -24 114 -47 115 -5 0 -16 -18 -24 -40z"/>
<path d="M274 630 c-19 -7 -21 -14 -16 -55 3 -28 0 -56 -8 -70 -18 -34 -72
-57 -115 -49 l-35 6 0 -63 c1 -147 110 -255 250 -247 48 3 55 6 58 26 3 18 -1
22 -25 22 -15 0 -33 4 -39 8 -15 10 -34 47 -34 67 0 25 46 65 75 65 24 0 25 2
25 69 0 41 8 95 20 133 11 34 20 66 20 70 0 22 -131 36 -176 18z m124 -49 c20
-12 10 -46 -14 -49 -25 -4 -40 24 -23 44 13 16 19 17 37 5z m-177 -191 c21
-12 25 -50 7 -68 -19 -19 -56 -14 -68 8 -15 28 3 61 38 69 2 1 12 -4 23 -9z"/>
<path d="M687 522 c-10 -10 -17 -28 -17 -40 0 -28 34 -62 60 -62 27 0 60 35
60 63 0 50 -70 76 -103 39z m39 -19 c-10 -10 -19 5 -10 18 6 11 8 11 12 0 2
-7 1 -15 -2 -18z"/>
<path d="M799 436 c-27 -13 -38 -68 -18 -92 14 -17 70 -19 87 -2 16 16 15 73
0 85 -24 18 -45 21 -69 9z m29 -17 c-2 -6 -8 -10 -13 -10 -5 0 -11 4 -13 10
-2 6 4 11 13 11 9 0 15 -5 13 -11z"/>
<path d="M657 392 c-35 -39 -7 -102 44 -102 26 0 61 49 53 74 -13 46 -67 61
-97 28z m40 -18 c-9 -9 -28 6 -21 18 4 6 10 6 17 -1 6 -6 8 -13 4 -17z"/>
<path d="M882 334 c-28 -19 -29 -57 -2 -84 25 -25 55 -25 80 0 55 55 -14 129
-78 84z m39 -17 c-13 -13 -26 -3 -16 12 3 6 11 8 17 5 6 -4 6 -10 -1 -17z"/>
<path d="M763 310 c-52 -21 -31 -110 26 -110 15 0 35 8 44 18 44 48 -8 116
-70 92z m29 -25 c0 -5 -5 -11 -11 -13 -6 -2 -11 4 -11 13 0 9 5 15 11 13 6 -2
11 -8 11 -13z"/>
<path d="M617 262 c-10 -10 -17 -28 -17 -40 0 -28 34 -62 60 -62 27 0 60 35
60 63 0 50 -70 76 -103 39z m44 -15 c-13 -13 -26 -3 -16 12 3 6 11 8 17 5 6
-4 6 -10 -1 -17z"/>
</g>
</svg>
